<svg width="20" height="20" viewBox="0 0 20 20" fill="none" xmlns="http://www.w3.org/2000/svg">
<path d="M15.8335 9.16667H10.8335V4.16667C10.8335 3.70643 10.4604 3.33333 10.0002 3.33333C9.53993 3.33333 9.16683 3.70643 9.16683 4.16667V9.16667H4.16683C3.70659 9.16667 3.3335 9.53976 3.3335 10C3.3335 10.4602 3.70659 10.8333 4.16683 10.8333H9.16683V15.8333C9.16683 16.2936 9.53993 16.6667 10.0002 16.6667C10.4604 16.6667 10.8335 16.2936 10.8335 15.8333V10.8333H15.8335C16.2937 10.8333 16.6668 10.4602 16.6668 10C16.6668 9.53976 16.2937 9.16667 15.8335 9.16667Z" fill="white"/>
</svg>
