<svg width="14" height="14" viewBox="0 0 14 14" fill="none" xmlns="http://www.w3.org/2000/svg">
<path fill-rule="evenodd" clip-rule="evenodd" d="M13.07 3.02H9.72003V1.9011C9.70431 1.47218 9.51916 1.06699 9.20518 0.77436C8.89119 0.481727 8.47399 0.325528 8.04503 0.340004H6.03503C5.60606 0.325528 5.18886 0.481727 4.87487 0.77436C4.56089 1.06699 4.37574 1.47218 4.36003 1.9011V3.02H1.01003C0.832332 3.02 0.661915 3.09059 0.536265 3.21624C0.410616 3.34189 0.340027 3.51231 0.340027 3.69C0.340027 3.8677 0.410616 4.03812 0.536265 4.16377C0.661915 4.28941 0.832332 4.36 1.01003 4.36H1.68003V11.73C1.68003 12.2631 1.89179 12.7743 2.26874 13.1513C2.64569 13.5282 3.15694 13.74 3.69003 13.74H10.39C10.9231 13.74 11.4344 13.5282 11.8113 13.1513C12.1883 12.7743 12.4 12.2631 12.4 11.73V4.36H13.07C13.2477 4.36 13.4181 4.28941 13.5438 4.16377C13.6694 4.03812 13.74 3.8677 13.74 3.69C13.74 3.51231 13.6694 3.34189 13.5438 3.21624C13.4181 3.09059 13.2477 3.02 13.07 3.02ZM5.70003 1.9011C5.70003 1.7939 5.84073 1.68 6.03503 1.68H8.04503C8.23933 1.68 8.38003 1.7939 8.38003 1.9011V3.02H5.70003V1.9011ZM11.06 11.73C11.06 11.9077 10.9894 12.0781 10.8638 12.2038C10.7381 12.3294 10.5677 12.4 10.39 12.4H3.69003C3.51233 12.4 3.34191 12.3294 3.21627 12.2038C3.09062 12.0781 3.02003 11.9077 3.02003 11.73V4.36H11.06V11.73ZM5.03003 10.39C5.20772 10.39 5.37814 10.3194 5.50379 10.1938C5.62944 10.0681 5.70003 9.8977 5.70003 9.72001V7.04001C5.70003 6.86231 5.62944 6.6919 5.50379 6.56625C5.37814 6.4406 5.20772 6.37001 5.03003 6.37001C4.85233 6.37001 4.68191 6.4406 4.55626 6.56625C4.43062 6.6919 4.36003 6.86231 4.36003 7.04001V9.72001C4.36003 9.8977 4.43062 10.0681 4.55626 10.1938C4.68191 10.3194 4.85233 10.39 5.03003 10.39ZM9.52379 10.1938C9.39814 10.3194 9.22772 10.39 9.05003 10.39C8.87233 10.39 8.70191 10.3194 8.57627 10.1938C8.45062 10.0681 8.38003 9.8977 8.38003 9.72001V7.04001C8.38003 6.86231 8.45062 6.6919 8.57627 6.56625C8.70191 6.4406 8.87233 6.37001 9.05003 6.37001C9.22772 6.37001 9.39814 6.4406 9.52379 6.56625C9.64944 6.6919 9.72003 6.86231 9.72003 7.04001V9.72001C9.72003 9.8977 9.64944 10.0681 9.52379 10.1938Z" fill="#FF4842"/>
</svg>
